<svg xmlns="http://www.w3.org/2000/svg" viewBox="0 0 1920 1080"><g transform="
          rotate(0 960 540) 
          translate(-0 -0)
          scale(1)
        "><rect width="1920" height="1080" fill="rgb(0, 73, 255)"></rect><g transform="translate(0, 0)"><path fill="rgb(42, 103, 255)" fill-opacity="1" d="M0,211.766L16,210.045C32,208.324,64,204.882,96,204.349C128,203.815,160,206.19,192,206.457C224,206.724,256,204.883,288,181.91C320,158.936,352,114.83,384,111.105C416,107.38,448,144.036,480,132.802C512,121.567,544,62.441,576,59.088C608,55.735,640,108.155,672,121.211C704,134.268,736,107.962,768,83.613C800,59.265,832,36.873,864,48.431C896,59.99,928,105.497,960,113.703C992,121.909,1024,92.812,1056,78.248C1088,63.685,1120,63.654,1152,84.765C1184,105.875,1216,148.126,1248,170.818C1280,193.51,1312,196.643,1344,170.805C1376,144.967,1408,90.158,1440,67.574C1472,44.99,1504,54.631,1536,75.764C1568,96.896,1600,129.519,1632,152.598C1664,175.676,1696,189.21,1728,180.309C1760,171.407,1792,140.071,1824,108.188C1856,76.304,1888,43.874,1904,27.658L1920,11.443L1920,1080L1904,1080C1888,1080,1856,1080,1824,1080C1792,1080,1760,1080,1728,1080C1696,1080,1664,1080,1632,1080C1600,1080,1568,1080,1536,1080C1504,1080,1472,1080,1440,1080C1408,1080,1376,1080,1344,1080C1312,1080,1280,1080,1248,1080C1216,1080,1184,1080,1152,1080C1120,1080,1088,1080,1056,1080C1024,1080,992,1080,960,1080C928,1080,896,1080,864,1080C832,1080,800,1080,768,1080C736,1080,704,1080,672,1080C640,1080,608,1080,576,1080C544,1080,512,1080,480,1080C448,1080,416,1080,384,1080C352,1080,320,1080,288,1080C256,1080,224,1080,192,1080C160,1080,128,1080,96,1080C64,1080,32,1080,16,1080L0,1080Z"></path></g><g transform="translate(0, 216)"><path fill="rgb(85, 134, 255)" fill-opacity="1" d="M0,1.605L16,23.008C32,44.41,64,87.215,96,100.669C128,114.124,160,98.228,192,81.706C224,65.185,256,48.037,288,43.353C320,38.669,352,46.447,384,51.965C416,57.483,448,60.739,480,79.834C512,98.928,544,133.861,576,157.65C608,181.439,640,194.085,672,201.671C704,209.256,736,211.781,768,197.174C800,182.567,832,150.829,864,125.577C896,100.325,928,81.56,960,65.182C992,48.804,1024,34.813,1056,55.484C1088,76.155,1120,131.487,1152,163.3C1184,195.113,1216,203.408,1248,207.849C1280,212.29,1312,212.879,1344,200.569C1376,188.259,1408,163.051,1440,147.31C1472,131.569,1504,125.295,1536,112.475C1568,99.655,1600,80.29,1632,95.586C1664,110.882,1696,160.839,1728,181.672C1760,202.506,1792,194.215,1824,191.858C1856,189.501,1888,193.078,1904,194.866L1920,196.655L1920,864L1904,864C1888,864,1856,864,1824,864C1792,864,1760,864,1728,864C1696,864,1664,864,1632,864C1600,864,1568,864,1536,864C1504,864,1472,864,1440,864C1408,864,1376,864,1344,864C1312,864,1280,864,1248,864C1216,864,1184,864,1152,864C1120,864,1088,864,1056,864C1024,864,992,864,960,864C928,864,896,864,864,864C832,864,800,864,768,864C736,864,704,864,672,864C640,864,608,864,576,864C544,864,512,864,480,864C448,864,416,864,384,864C352,864,320,864,288,864C256,864,224,864,192,864C160,864,128,864,96,864C64,864,32,864,16,864L0,864Z"></path></g><g transform="translate(0, 432)"><path fill="rgb(128, 164, 255)" fill-opacity="1" d="M0,161.025L16,137.335C32,113.645,64,66.265,96,71.939C128,77.613,160,136.34,192,149.683C224,163.026,256,130.984,288,103.738C320,76.492,352,54.041,384,53.578C416,53.116,448,74.641,480,104.636C512,134.631,544,173.096,576,175.404C608,177.711,640,143.859,672,123.912C704,103.964,736,97.92,768,81.858C800,65.796,832,39.716,864,26.367C896,13.018,928,12.4,960,24.143C992,35.885,1024,59.988,1056,92.654C1088,125.321,1120,166.55,1152,180.531C1184,194.511,1216,181.241,1248,151.53C1280,121.819,1312,75.666,1344,81.344C1376,87.023,1408,144.534,1440,153.517C1472,162.501,1504,122.957,1536,113.69C1568,104.422,1600,125.43,1632,126.725C1664,128.019,1696,109.599,1728,111.763C1760,113.926,1792,136.673,1824,147.738C1856,158.803,1888,158.186,1904,157.877L1920,157.569L1920,648L1904,648C1888,648,1856,648,1824,648C1792,648,1760,648,1728,648C1696,648,1664,648,1632,648C1600,648,1568,648,1536,648C1504,648,1472,648,1440,648C1408,648,1376,648,1344,648C1312,648,1280,648,1248,648C1216,648,1184,648,1152,648C1120,648,1088,648,1056,648C1024,648,992,648,960,648C928,648,896,648,864,648C832,648,800,648,768,648C736,648,704,648,672,648C640,648,608,648,576,648C544,648,512,648,480,648C448,648,416,648,384,648C352,648,320,648,288,648C256,648,224,648,192,648C160,648,128,648,96,648C64,648,32,648,16,648L0,648Z"></path></g><g transform="translate(0, 648)"><path fill="rgb(170, 194, 255)" fill-opacity="1" d="M0,95.743L16,100.101C32,104.458,64,113.173,96,117.433C128,121.693,160,121.498,192,119.379C224,117.259,256,113.215,288,109.666C320,106.117,352,103.064,384,88.535C416,74.007,448,48.003,480,32.475C512,16.947,544,11.895,576,19.109C608,26.324,640,45.805,672,58.053C704,70.3,736,75.313,768,76.449C800,77.585,832,74.844,864,81.247C896,87.65,928,103.196,960,114.399C992,125.601,1024,132.46,1056,143.197C1088,153.934,1120,168.549,1152,166.054C1184,163.558,1216,143.95,1248,123.675C1280,103.4,1312,82.458,1344,82.98C1376,83.502,1408,105.488,1440,101.996C1472,98.503,1504,69.532,1536,77.395C1568,85.258,1600,129.955,1632,138.729C1664,147.503,1696,120.353,1728,126.401C1760,132.45,1792,171.697,1824,188.238C1856,204.779,1888,198.614,1904,195.531L1920,192.449L1920,432L1904,432C1888,432,1856,432,1824,432C1792,432,1760,432,1728,432C1696,432,1664,432,1632,432C1600,432,1568,432,1536,432C1504,432,1472,432,1440,432C1408,432,1376,432,1344,432C1312,432,1280,432,1248,432C1216,432,1184,432,1152,432C1120,432,1088,432,1056,432C1024,432,992,432,960,432C928,432,896,432,864,432C832,432,800,432,768,432C736,432,704,432,672,432C640,432,608,432,576,432C544,432,512,432,480,432C448,432,416,432,384,432C352,432,320,432,288,432C256,432,224,432,192,432C160,432,128,432,96,432C64,432,32,432,16,432L0,432Z"></path></g><g transform="translate(0, 864)"><path fill="rgb(213, 225, 255)" fill-opacity="1" d="M0,107.106L16,119.585C32,132.063,64,157.02,96,154.97C128,152.92,160,123.862,192,111.914C224,99.965,256,105.126,288,93.823C320,82.521,352,54.755,384,59.273C416,63.79,448,100.591,480,96.14C512,91.69,544,45.989,576,38.981C608,31.972,640,63.656,672,92.954C704,122.252,736,149.165,768,133.687C800,118.209,832,60.341,864,57.128C896,53.914,928,105.356,960,113.486C992,121.617,1024,86.435,1056,77.27C1088,68.105,1120,84.958,1152,89.965C1184,94.973,1216,88.134,1248,101.094C1280,114.055,1312,146.815,1344,136.133C1376,125.452,1408,71.329,1440,67.992C1472,64.655,1504,112.104,1536,127.61C1568,143.117,1600,126.681,1632,132.603C1664,138.525,1696,166.805,1728,167.197C1760,167.589,1792,140.093,1824,109.163C1856,78.234,1888,43.872,1904,26.691L1920,9.51L1920,216L1904,216C1888,216,1856,216,1824,216C1792,216,1760,216,1728,216C1696,216,1664,216,1632,216C1600,216,1568,216,1536,216C1504,216,1472,216,1440,216C1408,216,1376,216,1344,216C1312,216,1280,216,1248,216C1216,216,1184,216,1152,216C1120,216,1088,216,1056,216C1024,216,992,216,960,216C928,216,896,216,864,216C832,216,800,216,768,216C736,216,704,216,672,216C640,216,608,216,576,216C544,216,512,216,480,216C448,216,416,216,384,216C352,216,320,216,288,216C256,216,224,216,192,216C160,216,128,216,96,216C64,216,32,216,16,216L0,216Z"></path></g></g></svg>